<svg width="469" height="82" viewBox="0 0 469 82" fill="none" xmlns="http://www.w3.org/2000/svg">
<g clip-path="url(#clip0_2068_624)">
<rect x="0.716797" y="1" width="80" height="80" rx="17" fill="white" style="mix-blend-mode:hue"/>
<path d="M44.6777 15.4072C44.6777 17.3888 44.1292 18.9533 43.0342 20.1006C42.3814 20.7845 41.5704 21.2628 40.6025 21.5391C39.5337 21.6995 38.1565 21.6573 37.5869 21.6572C34.5623 21.6572 32.2226 22.0325 29.876 23.1797C27.5815 24.327 25.7823 25.9963 24.4785 28.1865C23.1749 30.3246 22.5225 32.984 22.5225 36.165V38.3555H14.7002V45.9092H22.5225V81H16.7158C7.87957 80.9997 0.716929 73.8363 0.716797 65V17C0.716797 8.16344 7.88024 1 16.7168 1H44.6777V15.4072ZM64.7168 1C73.5531 1.00026 80.7168 8.16361 80.7168 17V65C80.7167 73.8364 73.5523 81 64.7158 81H31.2842V45.9092H41.0205V38.3555H31.2842V36.165C31.2842 33.714 31.9884 31.9668 33.3965 30.9238C34.8045 29.829 36.7038 29.3359 39.0283 29.2812H40.5469C40.5505 29.2902 40.5527 29.2959 40.5527 29.2959H44.6523L44.6777 50.2959C44.6777 54.8328 45.9027 58.3532 48.3535 60.8564C50.8046 63.3595 54.2471 64.6113 58.6797 64.6113C59.3575 64.6113 60.1401 64.5593 61.0264 64.4551C61.9128 64.3508 62.7222 64.2469 63.4521 64.1426V56.5547C62.9831 56.6068 62.487 56.6588 61.9658 56.7109C61.4446 56.7631 60.9746 56.789 60.5576 56.7891C58.889 56.7891 57.5322 56.5282 56.4893 56.0068C55.4464 55.4333 54.6901 54.6508 54.2207 53.6602C53.7514 52.6172 53.5166 51.3654 53.5166 49.9053V29.3564H63.1387V21.8223H53.5166V1H64.7168Z" fill="#764AE2"/>
</g>
<path d="M99.8689 67.6417V35.8552H92.7168V28.9486H99.8689V26.946C99.8689 24.0375 100.465 21.6058 101.657 19.6508C102.849 17.6482 104.494 16.1225 106.592 15.0735C108.738 14.0245 111.193 13.5 113.959 13.5C114.483 13.5 115.079 13.5477 115.747 13.643C116.414 13.6907 116.963 13.7622 117.392 13.8576V20.8667C117.01 20.7713 116.581 20.7237 116.104 20.7237C115.628 20.676 115.246 20.6521 114.96 20.6521C112.814 20.6521 111.098 21.1528 109.81 22.1541C108.523 23.1077 107.879 24.705 107.879 26.946V28.9486H116.781V35.8552H107.879V67.6417H99.8689Z" fill="#764AE2"/>
<path d="M116.781 67.6417V28.9486H124.505V36.7445L123.79 35.6001C124.648 33.073 126.031 31.2612 127.938 30.1645C129.846 29.0202 132.134 28.448 134.804 28.448H137.165V35.8147H133.803C131.133 35.8147 128.963 36.6491 127.295 38.3179C125.673 39.9391 124.863 42.2755 124.863 45.327V67.6417H116.781Z" fill="#764AE2"/>
<path d="M154.208 68.5C150.489 68.5 147.08 67.6179 143.981 65.8537C140.929 64.0895 138.498 61.6816 136.686 58.63C134.874 55.5785 133.968 52.1216 133.968 48.2594C133.968 44.3496 134.874 40.8927 136.686 37.8888C138.498 34.8372 140.929 32.4532 143.981 30.7367C147.032 28.9725 150.442 28.0904 154.208 28.0904C158.023 28.0904 161.432 28.9725 164.436 30.7367C167.488 32.4532 169.896 34.8372 171.66 37.8888C173.472 40.8927 174.378 44.3496 174.378 48.2594C174.378 52.1693 173.472 55.65 171.66 58.7016C169.848 61.7531 167.416 64.161 164.365 65.9252C161.313 67.6417 157.928 68.5 154.208 68.5ZM154.208 60.9902C156.497 60.9902 158.524 60.4419 160.288 59.3453C162.052 58.2486 163.435 56.7466 164.436 54.8394C165.485 52.8845 166.01 50.6912 166.01 48.2594C166.01 45.8277 165.485 43.6582 164.436 41.751C163.435 39.8437 162.052 38.3418 160.288 37.2451C158.524 36.1485 156.497 35.6001 154.208 35.6001C151.967 35.6001 149.941 36.1485 148.129 37.2451C146.365 38.3418 144.958 39.8437 143.909 41.751C142.908 43.6582 142.407 45.8277 142.407 48.2594C142.407 50.6912 142.908 52.8845 143.909 54.8394C144.958 56.7466 146.365 58.2486 148.129 59.3453C149.941 60.4419 151.967 60.9902 154.208 60.9902Z" fill="#764AE2"/>
<path d="M175.116 67.6417V28.9486H182.84V36.5299L181.91 35.5286C182.864 33.0969 184.39 31.2612 186.488 30.0215C188.586 28.7341 191.017 28.0904 193.783 28.0904C196.644 28.0904 199.171 28.7102 201.364 29.9499C203.557 31.1896 205.274 32.9062 206.514 35.0995C207.753 37.2928 208.373 39.8199 208.373 42.6808V67.6417H200.363V44.8264C200.363 42.8715 200.005 41.2265 199.29 39.8914C198.575 38.5087 197.55 37.4597 196.214 36.7445C194.927 35.9816 193.449 35.6001 191.78 35.6001C190.111 35.6001 188.609 35.9816 187.274 36.7445C185.987 37.4597 184.986 38.5087 184.27 39.8914C183.555 41.2742 183.198 42.9192 183.198 44.8264V67.6417H175.116Z" fill="#764AE2"/>
<path d="M226.607 68.0709C222.554 68.0709 219.407 66.9265 217.166 64.6378C214.925 62.3492 213.804 59.1307 213.804 54.9824V35.8377H210.081C210.081 35.8377 209.309 33.9809 208.66 33.1459C208.04 32.3483 206.912 31.0383 206.912 31.0383L207.01 28.9486H208.083C209.894 28.9486 211.301 28.4241 212.302 27.3752C213.304 26.3262 213.804 24.8958 213.804 23.0839V20.08H221.886V28.9486H230.683V35.8377H221.886V54.6248C221.886 55.9599 222.101 57.1042 222.53 58.0579C222.959 58.9638 223.65 59.679 224.604 60.2035C225.558 60.6803 226.797 60.9187 228.323 60.9187C228.705 60.9187 229.134 60.8949 229.611 60.8472C230.087 60.7995 230.54 60.7518 230.969 60.7042V67.6417C230.302 67.7371 229.563 67.8325 228.752 67.9278C227.942 68.0232 227.226 68.0709 226.607 68.0709Z" fill="#764AE2"/>
<path d="M231.704 67.6417V28.9486H239.786V67.6417H231.704ZM231.704 23.656V14.3583H239.786V23.656H231.704Z" fill="#764AE2"/>
<path d="M260.25 68.5C256.387 68.5 252.954 67.6179 249.951 65.8537C246.994 64.0418 244.682 61.6101 243.013 58.5585C241.344 55.4593 240.51 52.0024 240.51 48.1879C240.51 44.2781 241.344 40.8212 243.013 37.8173C244.729 34.8134 247.018 32.4532 249.879 30.7367C252.74 28.9725 255.982 28.0904 259.606 28.0904C262.514 28.0904 265.113 28.591 267.402 29.5923C269.69 30.5936 271.622 31.9764 273.195 33.7406C274.768 35.4571 275.961 37.4358 276.771 39.6769C277.629 41.9179 278.058 44.3019 278.058 46.829C278.058 47.4489 278.035 48.0925 277.987 48.7601C277.939 49.4276 277.844 50.0475 277.701 50.6196H246.875V44.1827H273.124L269.261 47.1151C269.738 44.7787 269.571 42.7046 268.761 40.8927C267.998 39.0332 266.806 37.5789 265.185 36.5299C263.611 35.4332 261.752 34.8849 259.606 34.8849C257.46 34.8849 255.553 35.4332 253.884 36.5299C252.215 37.5789 250.928 39.1047 250.022 41.1073C249.116 43.0622 248.759 45.4462 248.949 48.2594C248.711 50.8819 249.068 53.1706 250.022 55.1255C251.023 57.0804 252.406 58.6062 254.17 59.7029C255.982 60.7995 258.032 61.3479 260.321 61.3479C262.658 61.3479 264.636 60.8234 266.257 59.7744C267.926 58.7254 269.237 57.3665 270.191 55.6977L276.771 58.9161C276.008 60.728 274.816 62.373 273.195 63.8511C271.622 65.2815 269.714 66.4259 267.473 67.2841C265.28 68.0947 262.872 68.5 260.25 68.5Z" fill="#764AE2"/>
<path d="M278.794 67.6417V28.9486H286.518V36.7445L285.803 35.6001C286.661 33.073 288.044 31.2612 289.951 30.1645C291.858 29.0202 294.147 28.448 296.817 28.448H299.177V35.8147H295.816C293.146 35.8147 290.976 36.6491 289.307 38.3179C287.686 39.9391 286.876 42.2755 286.876 45.327V67.6417H278.794Z" fill="#764AE2"/>
<path d="M314.989 68.0709C310.936 68.0709 307.789 66.9265 305.548 64.6378C303.307 62.3492 302.186 59.1307 302.186 54.9824V35.8219H295.392V28.9486H296.465C298.277 28.9486 299.683 28.4241 300.684 27.3752C301.686 26.3262 302.186 24.8958 302.186 23.0839V20.08H310.268V28.9486H319.065V35.8219H310.268V54.6248C310.268 55.9599 310.483 57.1042 310.912 58.0579C311.341 58.9638 312.032 59.679 312.986 60.2035C313.94 60.6803 315.179 60.9187 316.705 60.9187C317.087 60.9187 317.516 60.8949 317.993 60.8472C318.469 60.7995 318.922 60.7518 319.352 60.7042V67.6417C318.684 67.7371 317.945 67.8325 317.134 67.9278C316.324 68.0232 315.609 68.0709 314.989 68.0709Z" fill="#764AE2"/>
<path d="M338.055 68.5C334.336 68.5 330.927 67.6179 327.827 65.8537C324.776 64.0895 322.344 61.6816 320.532 58.63C318.72 55.5785 317.814 52.1216 317.814 48.2594C317.814 44.3496 318.72 40.8927 320.532 37.8888C322.344 34.8372 324.776 32.4532 327.827 30.7367C330.879 28.9725 334.288 28.0904 338.055 28.0904C341.869 28.0904 345.279 28.9725 348.282 30.7367C351.334 32.4532 353.742 34.8372 355.506 37.8888C357.318 40.8927 358.224 44.3496 358.224 48.2594C358.224 52.1693 357.318 55.65 355.506 58.7016C353.694 61.7531 351.263 64.161 348.211 65.9252C345.159 67.6417 341.774 68.5 338.055 68.5ZM338.055 60.9902C340.344 60.9902 342.37 60.4419 344.134 59.3453C345.898 58.2486 347.281 56.7466 348.282 54.8394C349.331 52.8845 349.856 50.6912 349.856 48.2594C349.856 45.8277 349.331 43.6582 348.282 41.751C347.281 39.8437 345.898 38.3418 344.134 37.2451C342.37 36.1485 340.344 35.6001 338.055 35.6001C335.814 35.6001 333.787 36.1485 331.976 37.2451C330.211 38.3418 328.805 39.8437 327.756 41.751C326.755 43.6582 326.254 45.8277 326.254 48.2594C326.254 50.6912 326.755 52.8845 327.756 54.8394C328.805 56.7466 330.211 58.2486 331.976 59.3453C333.787 60.4419 335.814 60.9902 338.055 60.9902Z" fill="#764AE2"/>
<path d="M367.633 67.6417L354.33 28.9486H362.913L373.069 59.7744H370.065L380.435 28.9486H387.802L398.101 59.7744H395.097L405.325 28.9486H413.907L400.533 67.6417H393.238L382.795 36.1008H385.442L375 67.6417H367.633Z" fill="#764AE2"/>
<path d="M429.764 68.5C425.902 68.5 422.469 67.6179 419.465 65.8537C416.509 64.0418 414.196 61.6101 412.527 58.5585C410.858 55.4593 410.024 52.0024 410.024 48.1879C410.024 44.2781 410.858 40.8212 412.527 37.8173C414.244 34.8134 416.532 32.4532 419.393 30.7367C422.254 28.9725 425.496 28.0904 429.12 28.0904C432.029 28.0904 434.627 28.591 436.916 29.5923C439.205 30.5936 441.136 31.9764 442.709 33.7406C444.283 35.4571 445.475 37.4358 446.285 39.6769C447.144 41.9179 447.573 44.3019 447.573 46.829C447.573 47.4489 447.549 48.0925 447.501 48.7601C447.453 49.4276 447.358 50.0475 447.215 50.6196H416.389V44.1827H442.638L438.776 47.1151C439.252 44.7787 439.085 42.7046 438.275 40.8927C437.512 39.0332 436.32 37.5789 434.699 36.5299C433.125 35.4332 431.266 34.8849 429.12 34.8849C426.975 34.8849 425.067 35.4332 423.398 36.5299C421.73 37.5789 420.442 39.1047 419.536 41.1073C418.63 43.0622 418.273 45.4462 418.463 48.2594C418.225 50.8819 418.583 53.1706 419.536 55.1255C420.538 57.0804 421.92 58.6062 423.685 59.7029C425.496 60.7995 427.547 61.3479 429.835 61.3479C432.172 61.3479 434.15 60.8234 435.772 59.7744C437.44 58.7254 438.752 57.3665 439.705 55.6977L446.285 58.9161C445.522 60.728 444.33 62.373 442.709 63.8511C441.136 65.2815 439.229 66.4259 436.988 67.2841C434.794 68.0947 432.386 68.5 429.764 68.5Z" fill="#764AE2"/>
<path d="M448.308 67.6417V28.9486H456.032V36.7445L455.317 35.6001C456.175 33.073 457.558 31.2612 459.465 30.1645C461.373 29.0202 463.661 28.448 466.331 28.448H468.692V35.8147H465.33C462.66 35.8147 460.491 36.6491 458.822 38.3179C457.201 39.9391 456.39 42.2755 456.39 45.327V67.6417H448.308Z" fill="#764AE2"/>
<defs>
<clipPath id="clip0_2068_624">
<rect x="0.716797" y="1" width="80" height="80" rx="17" fill="white"/>
</clipPath>
</defs>
</svg>
